# xmcd
#
# Track frame offsets:
#	150
#	29973
#	50633
#	72114
#	103191
#	124069
#	145780
#	172824
#	198412
#	224156
#	251842
#	274712
#
# Disc length: 4034 seconds
#
# Revision: 2
# Processed by: cddbd v1.5.2PL0 Copyright (c) Steve Scherf et al.
# Submitted via: EasyCDDAExtractor 15.3.0.1
#
DISCID=c20fc00c
DTITLE=Various Artist - PNF - Tinh Yeu Toi Hat
DYEAR=2000
DGENRE=Vietnamese
TTITLE0=Hong Nhung and Lam Truong - Tinh yeu toi hat
TTITLE1=Thu Phuong - Dong song lo dang
TTITLE2=Bang Kieu - Nguoi di xa mai
TTITLE3=Thanh Lam - Giao mua
TTITLE4=Tran thu Ha - Khoang vang em cho
TTITLE5=Phuong Thanh - Mau cua lang quen
TTITLE6=Thu Phuong - Mua hoa bo lai
TTITLE7=Lam Truong - Mua phi truong
TTITLE8=Hong Nhung - Ngay hom qua la the
TTITLE9=Bang Kieu - Noi mua thu bat dau
TTITLE10=Thu Phuong and Huy MC - Mua phi truong
TTITLE11=Melody track - Tinh yeu toi hat
EXTD=
EXTT0=
EXTT1=
EXTT2=
EXTT3=
EXTT4=
EXTT5=
EXTT6=
EXTT7=
EXTT8=
EXTT9=
EXTT10=
EXTT11=
PLAYORDER=
